<?xml version="1.0" encoding="utf-8"?>
<!-- Generator: Adobe Illustrator 16.0.0, SVG Export Plug-In . SVG Version: 6.00 Build 0)  -->
<!DOCTYPE svg PUBLIC "-//W3C//DTD SVG 1.1//EN" "http://www.w3.org/Graphics/SVG/1.1/DTD/svg11.dtd">
<svg version="1.1" id="Layer_1" xmlns="http://www.w3.org/2000/svg" xmlns:xlink="http://www.w3.org/1999/xlink" x="0px" y="0px"
	 width="283.46px" height="283.46px" viewBox="0 0 283.46 283.46" enable-background="new 0 0 283.46 283.46" xml:space="preserve">
<g>
	<path fill-rule="evenodd" clip-rule="evenodd" fill="#BF2026" d="M123.298,27.814c0.467,0.051,0.932,0.12,1.398,0.15
		c1.607,0.104,3.219,0.155,4.822,0.298c3.714,0.33,7.383,0.941,10.997,1.866c11.258,2.881,21.229,8.219,29.974,15.83
		c11.139,9.696,19.018,21.581,23.602,35.631c1.356,4.154,2.322,8.404,2.882,12.736c0.637,4.936,0.813,9.892,0.522,14.866
		c-0.187,3.188-0.534,6.353-1.107,9.49c-1.213,6.635-3.307,12.985-6.303,19.032c-3.729,7.523-8.637,14.2-14.491,20.198
		c-4.471,4.582-9.342,8.675-14.765,12.09c-6.76,4.257-14.051,7.241-21.811,9.104c-3.198,0.768-6.435,1.326-9.694,1.762
		c-0.265,0.035-0.535,0.04-0.803,0.06c-0.093-2.352,0.182-4.691,0.283-7.037c0.055-1.271,0.215-2.537,0.316-3.807
		c0.094-1.17,0.125-2.348,0.275-3.511c0.111-0.867,0.126-1.739,0.213-2.605c0.117-1.168,0.233-2.334,0.324-3.503
		c0.102-1.306,0.153-2.612,0.264-3.915c0.17-2.006,0.299-4.015,0.337-6.027c0.086-4.463,0.069-8.923-0.58-13.356
		c-0.32-2.192-0.746-4.358-1.345-6.492c-0.162-0.581-0.339-1.158-0.489-1.742c-0.077-0.3,0.089-0.452,0.395-0.371
		c0.946,0.252,1.841,0.628,2.675,1.141c0.772,0.475,1.531,0.97,2.302,1.446c1.003,0.619,2.047,1.14,3.178,1.495
		c0.448,0.142,0.782,0.052,1.122-0.198c0.592-0.437,0.962-1.036,1.169-1.722c0.223-0.736,0.39-1.488,0.465-2.262
		c0.108-1.1,0.256-2.196,0.4-3.293c0.063-0.476,0.235-0.565,0.687-0.377c0.277,0.115,0.551,0.248,0.814,0.395
		c1.058,0.591,2.056,1.271,2.966,2.069c1.187,1.041,2.363,2.092,3.543,3.14c1.004,0.892,2.019,1.773,3.137,2.52
		c1.35,0.901,2.768,1.631,4.439,1.752c1.208,0.086,2.325-0.182,3.411-0.661c0.202-0.089,0.304-0.244,0.325-0.467
		c0.056-0.597-0.08-1.135-0.468-1.597c-0.37-0.44-0.8-0.815-1.315-1.079c-0.537-0.274-1.077-0.547-1.62-0.809
		c-0.61-0.292-1.173-0.653-1.694-1.081c-0.778-0.638-1.556-1.278-2.337-1.913c-1.046-0.848-2.134-1.629-3.344-2.229
		c-0.512-0.253-1.025-0.501-1.527-0.772c-1.268-0.688-2.589-1.281-3.753-2.149c-1.313-0.98-2.414-2.13-2.929-3.74
		c-0.229-0.713-0.226-0.738,0.355-1.174c1.404-1.054,2.953-1.855,4.562-2.543c2.501-1.069,5.1-1.871,7.677-2.73
		c0.157-0.052,0.322-0.093,0.487-0.111c0.148-0.017,0.273,0.072,0.271,0.224c-0.008,0.47-0.027,0.938-0.062,1.406
		c-0.096,1.27-0.207,2.538-0.302,3.809c-0.075,1.01,0.062,2.015,0.197,3.008c0.155,1.132,0.479,2.213,1.124,3.198
		c0.911,1.388,3.24,2.375,5.09,1.545c0.706-0.317,1.396-0.656,2.054-1.066c1.257-0.785,2.401-1.715,3.498-2.707
		c1.334-1.207,2.404-2.602,3.153-4.255c1.039-2.292,2.061-4.591,2.999-6.925c0.689-1.713,1.34-3.438,1.858-5.21
		c0.454-1.545,0.465-3.105,0.176-4.679c-0.226-1.232-0.675-2.385-1.199-3.513c-0.48-1.035-0.976-2.063-1.432-3.108
		c-0.446-1.024-0.67-2.1-0.667-3.228c0.008-1.545,0.036-3.085,0.251-4.619c0.192-1.385,0.765-2.555,1.83-3.48
		c0.487-0.423,1.021-0.76,1.595-1.044c0.781-0.387,1.568-0.768,2.348-1.157c0.637-0.318,1.229-0.708,1.697-1.241
		c2.527-2.879,3.833-6.172,3.428-10.062c-0.146-1.397-0.557-2.693-1.276-3.886c-1.293-2.142-3.197-3.429-5.676-3.744
		c-2.062-0.263-4.081,0.037-6.027,0.796c-1.417,0.551-2.542,1.472-3.433,2.695c-0.637,0.873-1.133,1.821-1.554,2.813
		c-0.696,1.638-1.225,3.337-1.797,5.02c-0.29,0.858-0.587,1.714-0.973,2.535c-0.22,0.468-0.242,0.483-0.764,0.457
		c-0.926-0.048-1.764-0.376-2.568-0.812c-1.158-0.631-2.146-1.498-3.137-2.35c-1.691-1.451-3.622-2.379-5.77-2.947
		c-2.941-0.778-5.942-1.013-8.959-1.145c-1.979-0.086-3.958,0.051-5.935,0.153c-1.44,0.077-2.885,0.121-4.317,0.268
		c-0.868,0.089-1.739,0.122-2.608,0.203c-1.301,0.119-2.603,0.244-3.904,0.354c-1.07,0.09-2.141,0.16-3.211,0.241
		c-1.402,0.107-2.806,0.277-4.21,0.312c-3.32,0.085-6.643,0.179-9.961-0.138c-0.799-0.077-1.396-0.387-1.873-1.013
		c-0.371-0.486-0.641-1.02-0.876-1.579c-0.287-0.681-0.591-1.354-1.033-1.953c-0.437-0.589-0.991-1.021-1.743-1.076
		c-0.7-0.052-1.401-0.05-2.105,0.068c-1.099,0.186-2.141,0.556-3.199,0.873c-0.803,0.24-0.81,0.232-1.506-0.168
		c-2.301-1.317-4.597-2.643-6.897-3.96c-3.873-2.218-7.774-4.385-11.785-6.348c-2.442-1.195-4.919-2.313-7.444-3.318
		c-0.412-0.164-0.608-0.377-0.547-0.813c1.004-0.784,2.009-1.568,3.013-2.353c3.833-2.995,7.739-5.889,11.859-8.482
		c5.041-3.174,10.341-5.805,16.002-7.686c4.564-1.519,9.245-2.516,14.019-3.071c2.064-0.241,4.138-0.408,6.217-0.487
		c0.435-0.017,0.874-0.017,1.295-0.151C120.075,27.814,121.687,27.814,123.298,27.814z"/>
	<path fill-rule="evenodd" clip-rule="evenodd" fill="#BF2026" d="M116.822,180.899c-1.248,0.079-2.48-0.12-3.711-0.248
		c-3.774-0.393-7.511-1.024-11.192-1.953c-16.212-4.095-29.843-12.365-40.598-25.221c-7.062-8.441-11.919-18.046-14.762-28.673
		c-1.033-3.862-1.741-7.788-2.176-11.762c-0.139-1.268-0.199-2.543-0.293-3.813c-0.042-0.566-0.053-1.138-0.362-1.644
		c0-1.343,0-2.686,0-4.029c0.314-1.411,0.389-2.847,0.442-4.285c0.001-0.034,0.005-0.067,0.008-0.101
		c0.312-3.577,0.806-7.128,1.573-10.638c1.249-5.72,3.068-11.246,5.641-16.513c0.632-1.294,1.263-2.591,2.06-3.796
		c2.204,1.48,4.655,2.346,7.224,2.937c2.483,0.569,5.002,0.945,7.513,1.368c2.182,0.367,4.354,0.767,6.482,1.388
		c2.223,0.647,4.23,1.667,5.985,3.193c1.544,1.344,3.062,2.716,4.514,4.16c1.522,1.516,3.044,3.031,4.566,4.546
		c1.546,1.54,3.096,3.074,4.544,4.709c2.037,2.299,3.804,4.771,5.062,7.588c0.685,1.531,1.381,3.057,2.047,4.596
		c0.548,1.261,1.066,2.535,1.45,3.857c0.224,0.772,0.494,1.538,0.528,2.35c0.05,1.208,0.027,2.411-0.135,3.615
		c-0.241,1.774-0.03,3.479,0.913,5.048c0.312,0.517,0.617,1.038,0.921,1.559c0.729,1.251,1.383,2.533,1.668,3.97
		c0.353,1.779,0.561,3.578,0.627,5.387c0.102,2.782,0.164,5.566,0.224,8.351c0.011,0.552,0.134,1.046,0.379,1.54
		c0.61,1.232,1.13,2.507,1.594,3.802c0.996,2.784,1.731,5.637,2.218,8.554c0.304,1.819,0.543,3.651,0.613,5.492
		c0.098,2.58,0.147,5.161-0.134,7.741c-0.134,1.233-0.277,2.466-0.5,3.684c-0.551,3.011-1.394,5.936-2.677,8.726
		c-0.371,0.804-0.357,0.818,0.371,1.265c0.284,0.174,0.589,0.319,0.894,0.456c0.736,0.329,1.506,0.565,2.278,0.789
		c0.967,0.279,1.937,0.553,2.838,1.014C115.964,180.165,116.476,180.42,116.822,180.899z"/>
	<path fill-rule="evenodd" clip-rule="evenodd" fill="#070707" d="M193.3,240.867c0.967-0.172,1.848-0.586,2.714-1.022
		c0.897-0.45,1.77-0.952,2.659-1.421c1.634-0.86,2.531-1.19,3.937-1.459c0.188,0.13,0.081,0.302,0.026,0.438
		c-0.318,0.785-0.791,1.474-1.379,2.082c-0.634,0.657-1.357,1.195-2.127,1.678c-1.083,0.679-2.232,1.226-3.397,1.742
		c-0.796,0.354-1.594,0.701-2.403,1.023c-2.843,1.128-5.545,2.532-8.145,4.138c-1.883,1.162-3.774,2.309-5.672,3.445
		c-1.238,0.74-2.512,1.414-3.82,2.021c-1.989,0.925-4.086,1.494-6.234,1.891c-0.164,0.031-0.334,0.032-0.498,0.046
		c-0.327-0.019-0.651-0.018-0.941,0.177c-1.008,0-2.015,0-3.021,0c-0.062-0.211-0.257-0.173-0.405-0.221
		c-0.779-0.256-0.945-0.353-1.545-0.896c0.068-0.347,0.33-0.573,0.545-0.822c0.756-0.873,1.672-1.545,2.665-2.121
		c1.253-0.727,2.592-1.259,3.941-1.766c1.13-0.426,2.271-0.818,3.396-1.254c1.725-0.667,3.401-1.429,4.843-2.622
		c0.196-0.163,0.402-0.212,0.644-0.222c1.095-0.041,2.105-0.389,3.065-0.893c2.418-1.269,4.434-3.007,6.057-5.2
		c0.299-0.4,0.541-0.847,0.782-1.286c0.546-0.99,0.477-1.991,0.02-2.995c-0.359-0.789-0.938-1.383-1.63-1.88
		c-0.712-0.511-1.497-0.886-2.312-1.2c-1.666-0.643-3.396-1.044-5.138-1.396c-2.364-0.48-4.737-0.929-7.1-1.422
		c-1.38-0.288-2.734-0.677-4.044-1.203c-0.748-0.3-1.475-0.645-2.143-1.103c-0.273-0.19-0.545-0.394-0.794-0.616
		c-1.057-0.945-1.092-1.111-0.71-2.526c0.729-2.709,2.117-5.059,3.931-7.172c2.234-2.604,4.926-4.643,7.914-6.298
		c3.877-2.148,8.012-3.561,12.388-4.28c2.932-0.482,5.872-0.623,8.826-0.343c2.314,0.219,4.568,0.709,6.749,1.534
		c0.466,0.177,0.789,0.438,1.044,0.867c0.565,0.951,1.16,1.883,1.627,2.89c0.926,2.009,1.024,4.073,0.465,6.19
		c-0.094,0.356-0.261,0.57-0.654,0.651c-0.489,0.1-0.961,0.294-1.468,0.33c-0.532,0.035-0.993-0.119-1.351-0.53
		c-0.392-0.448-0.406-0.816-0.009-1.245c0.203-0.221,0.447-0.403,0.679-0.599c0.985-0.831,0.838-0.865,0.271-1.817
		c-0.728-1.223-1.793-2.068-3.079-2.65c-1.494-0.673-3.083-0.904-4.699-0.976c-2.021-0.091-4.022,0.148-6.012,0.463
		c-2.884,0.454-5.713,1.17-8.555,1.824c-0.686,0.159-1.423,0.191-2.051,0.474c-0.626,0.283-1.138,0.814-1.708,1.225
		c-1.146,0.821-2.378,1.51-3.584,2.236c-1.062,0.641-2.119,1.291-3.157,1.971c-1.041,0.683-1.986,1.488-2.821,2.417
		c-0.632,0.702-1.162,1.477-1.587,2.319c-0.207,0.415-0.184,0.509,0.176,0.876c0.619,0.631,1.35,1.1,2.143,1.477
		c1.253,0.594,2.585,0.935,3.939,1.18c1.75,0.319,3.521,0.486,5.293,0.644c2.204,0.193,4.416,0.339,6.589,0.797
		c0.492,0.102,0.974,0.244,1.459,0.378c0.16,0.044,0.363,0.074,0.456,0.186c0.305,0.363,0.721,0.472,1.14,0.587
		c0.331,0.094,0.517,0.294,0.507,0.649c-0.003,0.163-0.056,0.337,0.103,0.484c0.278-0.068,0.567-0.174,0.862-0.208
		c2.183-0.237,3.048,0.334,3.783,2.029c0.479,1.103,0.569,2.273,0.394,3.457c-0.242,1.62-0.809,3.108-1.862,4.389
		c-0.061,0.076-0.099,0.174-0.146,0.26c-0.053,0.065-0.161,0.15-0.146,0.188c0.036,0.091,0.146,0.082,0.236,0.055
		C193.247,240.899,193.271,240.881,193.3,240.867z M168.347,252.969c0.021,0.018,0.042,0.052,0.064,0.052
		c0.166,0.002,0.333,0.014,0.496-0.008c2.639-0.357,5.146-1.13,7.483-2.414c0.138-0.074,0.3-0.139,0.313-0.334
		c-0.762-0.514-1.319-0.671-2.262-0.542c-2.37,0.32-4.345,1.438-6.054,3.069C168.353,252.826,168.36,252.908,168.347,252.969z"/>
	<path fill-rule="evenodd" clip-rule="evenodd" fill="#070707" d="M239.731,152.104c-0.546-0.075-1.036,0.191-1.561,0.261
		c-1.542,0.203-3.085,0.109-4.627,0.11c-0.233,0-0.364-0.164-0.355-0.382c0.014-0.327,0.138-0.593,0.436-0.742
		c0.268-0.136,0.555-0.234,0.825-0.366c0.251-0.12,0.434-0.301,0.481-0.6c0.077-0.473-0.041-0.686-0.523-0.756
		c-0.765-0.109-1.53-0.215-2.3-0.259c-3.197-0.183-6.372,0-9.5,0.723c-0.585,0.135-1.15,0.359-1.727,0.536
		c-0.303,0.094-0.418,0.301-0.403,0.607c0.041,0.906,0.01,1.812-0.081,2.715c-0.069,0.709-0.247,1.387-0.658,1.983
		c-0.305,0.439-0.543,0.485-1.024,0.242c-0.345-0.175-0.603-0.437-0.75-0.783c-0.155-0.369-0.278-0.752-0.396-1.136
		c-0.139-0.448-0.231-0.911-0.387-1.352c-0.316-0.89-0.436-0.979-1.373-0.957c-1.629,0.038-3.021-0.51-4.208-1.665
		c-0.9,0.406-1.544,1.062-2.051,1.871c-0.167,0.267-0.117,0.513,0.052,0.748c0.282,0.395,0.67,0.649,1.11,0.837
		c0.523,0.224,1.053,0.436,1.567,0.676c0.368,0.171,0.374,0.355,0.051,0.556c-0.553,0.344-1.159,0.527-1.805,0.567
		c-1.039,0.063-2.077,0.113-3.116,0.157c-0.541,0.021-1.071,0.098-1.583,0.265c-0.878,0.285-1.514,0.844-1.864,1.708
		c-0.097,0.238-0.038,0.382,0.199,0.468c1.079,0.398,2.182,0.356,3.275,0.121c0.816-0.174,1.615-0.446,2.422-0.668
		c1.037-0.283,2.074-0.551,3.167-0.485c0.859,0.054,1.635,0.309,2.296,0.81c0.085,0.285-0.127,0.399-0.224,0.556
		c-0.475,0.763-0.624,1.617-0.744,2.483c-0.13,0.93-0.251,1.86-0.389,2.789c-0.034,0.23-0.107,0.456-0.176,0.68
		c-0.285,0.92-0.796,1.608-1.791,1.855c-0.39,0.096-0.397,0.193-0.31,0.585c0.109,0.479,0.363,0.868,0.733,1.172
		c0.285,0.231,0.601,0.427,0.911,0.624c0.311,0.199,0.634,0.374,0.946,0.572c0.909,0.573,1.296,1.404,1.228,2.447
		c-0.253,0.185-0.406-0.018-0.559-0.101c-1.213-0.649-2.44-0.633-3.688-0.13c-0.719,0.292-1.386,0.679-2.05,1.068
		c-0.636,0.375-1.266,0.759-1.913,1.113c-0.649,0.354-1.342,0.608-2.071,0.75c-0.468,0.09-0.943,0.123-1.402,0.029
		c-1.196-0.247-1.179-0.155-0.676-1.207c0.886-1.85,1.603-3.761,2.046-5.768c0.301-1.352,0.409-2.719,0.297-4.101
		c-0.11-1.361-0.529-2.623-1.323-3.747c-0.331-0.471-0.398-0.485-0.915-0.326c-0.62,0.192-1.154,0.533-1.655,0.932
		c-0.395,0.312-0.782,0.637-1.187,0.933c-0.665,0.493-1.429,0.722-2.248,0.794c-0.349,0.03-0.592-0.101-0.715-0.42
		c-0.096-0.248-0.182-0.506-0.228-0.766c-0.054-0.297-0.069-0.601-0.08-0.901c-0.04-1.207-0.027-1.187,1.034-1.725
		c4.618-2.346,8.082-5.81,10.191-10.574c0.424-0.954,0.704-1.953,0.933-2.97c0.092-0.407,0.146-0.458,0.515-0.469
		c0.885-0.024,1.736,0.124,2.539,0.512c0.461,0.222,0.86,0.521,1.167,0.933c0.588,0.788,0.567,1.648-0.062,2.399
		c-0.194,0.23-0.419,0.435-0.639,0.661c0.203,0.382,0.572,0.622,0.922,0.88c0.977,0.72,2.082,1.215,3.168,1.74
		c0.412,0.202,0.793,0.064,1.05-0.31c0.178-0.257,0.252-0.549,0.257-0.855c0.008-0.603,0.003-1.206,0.003-1.792
		c0.221-0.09,0.357,0.009,0.498,0.103c0.732,0.481,1.549,0.614,2.405,0.556c1.468-0.099,2.728-0.668,3.738-1.74
		c0.882-0.936,0.94-1.844,0.192-2.902c-0.249-0.354-0.57-0.659-0.85-0.993c-0.191-0.23-0.397-0.459-0.545-0.716
		c-0.175-0.301,0.01-0.654,0.352-0.667c1.845-0.068,3.544,0.332,4.879,1.7c0.974,0.998,1.142,2.293,0.519,3.528
		c-0.118,0.233-0.266,0.452-0.384,0.648c0.146,0.3,0.368,0.217,0.542,0.204c1.411-0.097,2.818-0.029,4.223,0.086
		c0.976,0.08,1.927,0.265,2.849,0.597c1.337,0.483,2.423,1.255,3.001,2.612c0.006,0.017,0.062,0.015,0.096,0.02
		C239.731,151.567,239.731,151.835,239.731,152.104z M207.765,170.74c0.806,0.242,1.528,0.143,2.194-0.333
		c0.242-0.175,0.482-0.355,0.719-0.539c0.429-0.326,0.559-0.71,0.393-1.207c-0.053-0.157-0.133-0.308-0.227-0.444
		c-0.21-0.306-0.379-0.621-0.385-1.008c-0.003-0.254-0.181-0.337-0.403-0.324c-0.867,0.047-1.424,0.515-1.707,1.31
		C208.057,169.009,207.931,169.866,207.765,170.74z M211.427,159.18c-1.014,0.136-2.081,0.114-3.125,0.348
		c-0.331,0.074-0.645,0.184-0.929,0.366c-0.419,0.268-0.665,0.646-0.726,1.146c-0.028,0.23,0.049,0.391,0.242,0.502
		c0.434,0.254,0.887,0.244,1.36,0.118c1.06-0.284,2.118-0.594,3.31-0.388c0.003-0.531,0.013-0.995,0.007-1.461
		C211.565,159.617,211.619,159.408,211.427,159.18z M208.93,165.233c0.693,0.01,1.43-0.331,1.855-0.855
		c0.427-0.526,0.446-0.999,0.063-1.562c-0.169-0.242-0.312-0.272-0.547-0.032c-0.296,0.299-0.659,0.451-1.035,0.594
		c-0.282,0.104-0.569,0.2-0.839,0.334c-0.374,0.188-0.747,0.477-0.652,0.913c0.091,0.422,0.532,0.558,0.955,0.599
		C208.796,165.229,208.863,165.23,208.93,165.233z"/>
	<path fill-rule="evenodd" clip-rule="evenodd" fill="#070707" d="M53.452,68.225c0.229-2.109,0.847-4.129,1.438-6.152
		c0.413-1.415,0.804-2.835,1.028-4.294c0.122-0.794,0.178-1.597,0.266-2.397c0.03-0.27-0.098-0.444-0.329-0.561
		c-0.484-0.244-0.994-0.395-1.539-0.42c-0.838-0.042-1.675-0.021-2.508,0.092c-0.664,0.091-1.328,0.19-1.995,0.253
		c-0.432,0.041-0.872,0.056-1.305,0.025c-1.022-0.073-1.103-0.174-1.12-1.222c-0.041-2.39,0.134-4.757,0.779-7.067
		c0.188-0.676,0.452-1.332,0.707-1.985c0.15-0.387,0.24-0.422,0.599-0.295c2.75,0.979,5.605,1.578,8.412,2.351
		c0.71,0.196,1.417,0.4,2.121,0.618c2.154,0.667,4.205,1.558,6.052,2.875c-0.062,0.437,0.135,0.649,0.547,0.813
		c2.525,1.005,5.002,2.123,7.444,3.318c4.011,1.963,7.912,4.13,11.785,6.348c2.301,1.317,4.597,2.643,6.897,3.96
		c0.696,0.4,0.703,0.408,1.506,0.168c1.059-0.317,2.101-0.688,3.199-0.873c0.704-0.118,1.405-0.12,2.105-0.068
		c0.752,0.056,1.307,0.487,1.743,1.076c0.442,0.599,0.746,1.272,1.033,1.953c0.235,0.56,0.505,1.093,0.876,1.579
		c0.477,0.626,1.074,0.936,1.873,1.013c3.318,0.316,6.641,0.223,9.961,0.138c1.404-0.035,2.808-0.205,4.21-0.312
		c1.07-0.081,2.141-0.151,3.211-0.241c1.302-0.109,2.604-0.234,3.904-0.354c0.869-0.081,1.74-0.114,2.608-0.203
		c1.433-0.146,2.877-0.19,4.317-0.268c1.977-0.103,3.955-0.239,5.935-0.153c3.017,0.132,6.018,0.366,8.959,1.145
		c2.147,0.568,4.078,1.496,5.77,2.947c0.991,0.852,1.979,1.719,3.137,2.35c0.805,0.437,1.643,0.765,2.568,0.812
		c0.521,0.026,0.544,0.011,0.764-0.457c0.386-0.821,0.683-1.677,0.973-2.535c0.572-1.683,1.101-3.382,1.797-5.02
		c0.421-0.992,0.917-1.94,1.554-2.813c0.891-1.224,2.016-2.145,3.433-2.695c1.946-0.759,3.966-1.059,6.027-0.796
		c2.479,0.315,4.383,1.603,5.676,3.744c0.72,1.192,1.131,2.488,1.276,3.886c0.405,3.891-0.9,7.184-3.428,10.062
		c-0.468,0.533-1.061,0.923-1.697,1.241c-0.779,0.39-1.566,0.771-2.348,1.157c-0.573,0.284-1.107,0.621-1.595,1.044
		c-1.065,0.926-1.638,2.096-1.83,3.48c-0.215,1.534-0.243,3.074-0.251,4.619c-0.003,1.128,0.221,2.203,0.667,3.228
		c0.456,1.045,0.951,2.073,1.432,3.108c0.524,1.128,0.974,2.28,1.199,3.513c0.289,1.573,0.278,3.134-0.176,4.679
		c-0.519,1.771-1.169,3.497-1.858,5.21c-0.938,2.334-1.96,4.633-2.999,6.925c-0.749,1.653-1.819,3.048-3.153,4.255
		c-1.097,0.992-2.241,1.922-3.498,2.707c-0.658,0.41-1.348,0.749-2.054,1.066c-1.85,0.83-4.179-0.157-5.09-1.545
		c-0.646-0.985-0.969-2.066-1.124-3.198c-0.136-0.993-0.272-1.998-0.197-3.008c0.095-1.271,0.206-2.539,0.302-3.809
		c0.035-0.469,0.055-0.937,0.062-1.406c0.003-0.151-0.122-0.24-0.271-0.224c-0.165,0.019-0.33,0.06-0.487,0.111
		c-2.577,0.859-5.176,1.661-7.677,2.73c-1.608,0.688-3.157,1.489-4.562,2.543c-0.581,0.436-0.584,0.461-0.355,1.174
		c0.515,1.61,1.615,2.76,2.929,3.74c1.164,0.868,2.485,1.462,3.753,2.149c0.502,0.271,1.016,0.52,1.527,0.772
		c1.21,0.6,2.298,1.381,3.344,2.229c0.781,0.635,1.559,1.275,2.337,1.913c0.521,0.428,1.084,0.789,1.694,1.081
		c0.543,0.262,1.083,0.534,1.62,0.809c0.516,0.264,0.945,0.639,1.315,1.079c0.388,0.462,0.523,1,0.468,1.597
		c-0.021,0.223-0.123,0.378-0.325,0.467c-1.086,0.479-2.203,0.747-3.411,0.661c-1.672-0.121-3.09-0.851-4.439-1.752
		c-1.118-0.746-2.133-1.628-3.137-2.52c-1.18-1.048-2.356-2.099-3.543-3.14c-0.91-0.799-1.908-1.479-2.966-2.069
		c-0.264-0.146-0.537-0.279-0.814-0.395c-0.451-0.188-0.623-0.099-0.687,0.377c-0.145,1.097-0.292,2.193-0.4,3.293
		c-0.075,0.773-0.242,1.525-0.465,2.262c-0.207,0.686-0.577,1.285-1.169,1.722c-0.34,0.25-0.674,0.34-1.122,0.198
		c-1.131-0.355-2.175-0.876-3.178-1.495c-0.771-0.477-1.529-0.972-2.302-1.446c-0.834-0.513-1.729-0.889-2.675-1.141
		c-0.306-0.081-0.472,0.071-0.395,0.371c0.15,0.584,0.327,1.161,0.489,1.742c0.599,2.134,1.024,4.3,1.345,6.492
		c0.649,4.434,0.666,8.894,0.58,13.356c-0.038,2.013-0.167,4.021-0.337,6.027c-0.11,1.303-0.162,2.609-0.264,3.915
		c-0.091,1.169-0.207,2.335-0.324,3.503c-0.087,0.866-0.102,1.738-0.213,2.605c-0.15,1.163-0.182,2.341-0.275,3.511
		c-0.102,1.27-0.262,2.536-0.316,3.807c-0.102,2.346-0.376,4.686-0.283,7.037c-0.289,0.769-0.262,1.586-0.311,2.383
		c-0.11,1.753,0.116,3.478,0.649,5.158c0.684,2.157,1.889,3.985,3.525,5.535c1.65,1.563,3.567,2.716,5.635,3.632
		c2.276,1.009,4.653,1.694,7.086,2.207c0.394,0.082,0.786,0.164,1.169,0.243c0.067,0.209-0.05,0.319-0.181,0.434
		c-0.841,0.75-1.831,1.223-2.901,1.545c-1.231,0.373-2.498,0.502-3.771,0.559c-1.713,0.077-3.421-0.066-5.119-0.253
		c-2.966-0.327-5.924-0.725-8.89-1.038c-1.533-0.162-3.078-0.215-4.623-0.133c-0.511,0.026-0.61-0.038-0.653-0.521
		c-0.059-0.668-0.084-1.339-0.089-2.01c-0.014-1.579,0.177-3.146,0.336-4.713c0.231-2.27,0.436-4.539,0.316-6.826
		c-0.035-0.674-0.131-1.338-0.281-1.988c-0.47-2.024-1.561-3.538-3.597-4.243c-0.347-0.479-0.858-0.734-1.363-0.993
		c-0.901-0.461-1.871-0.734-2.838-1.014c-0.772-0.224-1.542-0.46-2.278-0.789c-0.305-0.137-0.609-0.282-0.894-0.456
		c-0.729-0.446-0.742-0.461-0.371-1.265c1.283-2.79,2.126-5.715,2.677-8.726c0.223-1.218,0.366-2.45,0.5-3.684
		c0.281-2.58,0.231-5.161,0.134-7.741c-0.07-1.841-0.31-3.673-0.613-5.492c-0.486-2.917-1.222-5.77-2.218-8.554
		c-0.464-1.295-0.983-2.569-1.594-3.802c-0.245-0.494-0.368-0.988-0.379-1.54c-0.06-2.784-0.122-5.568-0.224-8.351
		c-0.066-1.809-0.274-3.607-0.627-5.387c-0.285-1.437-0.939-2.719-1.668-3.97c-0.304-0.521-0.609-1.042-0.921-1.559
		c-0.943-1.568-1.154-3.273-0.913-5.048c0.162-1.204,0.185-2.407,0.135-3.615c-0.034-0.812-0.305-1.577-0.528-2.35
		c-0.384-1.322-0.902-2.597-1.45-3.857c-0.666-1.539-1.362-3.064-2.047-4.596c-1.258-2.816-3.024-5.289-5.062-7.588
		c-1.448-1.635-2.998-3.169-4.544-4.709c-1.522-1.515-3.044-3.03-4.566-4.546c-1.452-1.444-2.97-2.816-4.514-4.16
		c-1.755-1.526-3.763-2.546-5.985-3.193c-2.129-0.621-4.301-1.021-6.482-1.388c-2.511-0.423-5.029-0.799-7.513-1.368
		C58.107,70.57,55.656,69.705,53.452,68.225z"/>
	<path fill-rule="evenodd" clip-rule="evenodd" fill="#070707" d="M94.448,246.009c0.519,0.066,0.844-0.133,1.175-0.275
		c1.025-0.437,1.966-1.021,2.803-1.757c0.906-0.798,1.788-1.626,2.672-2.449c0.886-0.824,1.789-1.626,2.828-2.256
		c0.628-0.381,1.266-0.744,2.017-0.925c0.149,0.542,0.054,1.025-0.087,1.511c-0.189,0.651-0.512,1.237-0.896,1.791
		c-0.482,0.691-1.05,1.311-1.684,1.863c-2.323,2.027-4.981,3.387-8.014,3.985c-0.961,0.19-1.939,0.223-2.907,0.078
		c-2.018-0.298-3.545-1.457-3.883-4.097c-0.122-0.944-0.018-1.869,0.277-2.781c0.445-1.374,0.982-2.712,1.576-4.025
		c1.384-3.056,2.907-6.042,4.535-8.976c0.687-1.235,1.53-2.363,2.369-3.496c0.679-0.917,1.358-1.834,1.989-2.783
		c0.617-0.928,1.083-1.932,1.223-3.057c0.024-0.199,0.045-0.403,0.029-0.602c-0.012-0.153-0.142-0.229-0.288-0.176
		c-0.252,0.088-0.498,0.196-0.743,0.305c-3.99,1.754-7.615,4.092-10.985,6.842c-3.364,2.745-6.41,5.82-9.344,9.01
		c-2.683,2.915-5.332,5.86-8.022,8.768c-2.212,2.393-4.53,4.679-7.006,6.8c-0.738,0.635-0.572,0.686-1.533,0.096
		c-0.143-0.087-0.279-0.186-0.41-0.291c-1.022-0.824-1.358-1.882-0.993-3.142c0.188-0.65,0.476-1.258,0.855-1.813
		c0.532-0.773,1.073-1.543,1.646-2.286c0.802-1.037,1.545-2.108,2.253-3.212c4.042-6.296,8.105-12.578,12.155-18.867
		c0.175-0.271,0.418-0.517,0.467-0.79c-0.062-0.213-0.18-0.177-0.267-0.176c-4.978,0.054-9.609,1.305-13.843,3.959
		c-0.977,0.611-1.84,1.344-2.566,2.242c-0.337,0.416-0.687,0.825-1.054,1.216c-0.298,0.318-0.618,0.617-0.949,0.899
		c-0.337,0.282-0.722,0.502-1.152,0.598c-1.688,0.372-2.27-0.223-2.157-1.967c0.036-0.558,0.372-0.998,0.772-1.377
		c0.443-0.418,0.959-0.729,1.5-1.004c0.867-0.444,1.774-0.798,2.692-1.114c1.685-0.584,3.294-1.328,4.866-2.162
		c1.718-0.912,3.431-1.835,5.198-2.648c1.956-0.901,3.965-1.635,6.095-2.011c1.77-0.312,3.539-0.339,5.311-0.046
		c0.853,0.142,0.865,0.178,1.056,1.062c0.399,1.866,0.191,3.668-0.532,5.422c-0.425,1.028-0.986,1.979-1.618,2.892
		c-0.727,1.05-1.542,2.031-2.347,3.021c-0.74,0.912-1.48,1.824-2.195,2.756c-0.387,0.506-0.743,1.037-1.069,1.582
		c-0.144,0.24-0.411,0.452-0.325,0.794c0.431,0.206,0.584-0.21,0.804-0.396c2.721-2.293,5.442-4.585,7.982-7.082
		c1.654-1.625,3.227-3.323,4.651-5.155c0.273-0.352,0.579-0.622,0.993-0.811c1.101-0.503,2.107-1.176,3.131-1.818
		c1.221-0.768,2.435-1.546,3.729-2.189c1.084-0.539,2.196-0.987,3.397-1.211c1.995-0.37,3.705,0.153,5.199,1.512
		c0.501,0.458,0.718,0.914,0.483,1.583c-0.255,0.728-0.435,1.479-0.676,2.21c-0.662,2.015-1.57,3.922-2.62,5.758
		c-0.915,1.602-1.867,3.183-2.819,4.762c-1.21,2.013-2.416,4.027-3.405,6.16c-1.138,2.452-1.928,5.005-2.222,7.697
		C94.493,244.62,94.487,245.29,94.448,246.009z M75.924,233.196c-0.02-0.033-0.043-0.074-0.066-0.115
		c-0.021,0.021-0.064,0.049-0.061,0.063c0.011,0.044,0.04,0.084,0.062,0.125C75.879,233.247,75.898,233.224,75.924,233.196z"/>
	<path fill-rule="evenodd" clip-rule="evenodd" fill="#070707" d="M136.086,214.463c1.293-0.369,2.523-0.904,3.751-1.438
		c3.777-1.651,7.541-3.331,11.313-4.996c2.422-1.07,4.855-2.111,7.354-2.995c0.438-0.155,0.849-0.396,1.268-0.605
		c0.662-0.335,1.283-0.287,1.891,0.143c0.279,0.196,0.387,0.427,0.352,0.769c-0.124,1.179-0.584,2.194-1.413,3.041
		c-0.596,0.607-1.309,1.038-2.077,1.395c-1.101,0.51-2.258,0.866-3.438,1.111c-2.776,0.579-5.395,1.591-7.955,2.777
		c-2.463,1.141-4.931,2.274-7.393,3.421c-1.008,0.469-2.049,0.828-3.13,1.077c-0.066,0.015-0.133,0.025-0.199,0.037
		c-2.024,0.363-3.438,1.565-4.499,3.262c-0.536,0.856-0.936,1.779-1.301,2.716c-0.279,0.719-0.542,1.443-0.806,2.168
		c-0.461,1.264-1.025,2.478-1.719,3.629c-0.272,0.452-0.27,0.467,0.153,0.81c0.756,0.616,1.554,1.171,2.377,1.689
		c1.449,0.914,2.968,1.701,4.507,2.448c1.778,0.863,3.568,1.706,5.337,2.591c2.315,1.159,4.549,2.451,6.476,4.207
		c0.218,0.199,0.453,0.243,0.729,0.259c1.932,0.11,3.541,0.938,4.92,2.255c0.466,0.443,0.849,0.954,1.111,1.542
		c0.562,1.251,0.217,2.32-0.96,3.011c-0.145,0.085-0.298,0.154-0.451,0.222c-1.186,0.519-1.191,0.517-2.294-0.196
		c-4.116-2.659-8.067-5.555-12.035-8.429c-3.315-2.4-6.639-4.788-10.088-6.996c-1.178-0.754-0.935-0.817-1.627,0.442
		c-2.929,5.328-4.959,10.986-6.118,16.954c-0.081,0.423-0.062,0.869-0.247,1.269c-1.742-0.489-3.247-2.106-3.633-3.831
		c-0.247-1.112-0.141-2.203,0.108-3.292c0.309-1.346,0.812-2.626,1.427-3.857c0.703-1.41,1.444-2.801,2.187-4.19
		c0.695-1.303,1.422-2.586,1.996-3.947c0.222-0.523,0.379-1.075,0.598-1.599c0.144-0.347,0.083-0.647-0.066-0.964
		c-0.278-0.589-0.685-1.078-1.203-1.461c-0.485-0.358-0.995-0.684-1.504-1.007c-0.51-0.323-1.026-0.638-1.474-1.047
		c-0.503-0.462-0.894-0.996-1.089-1.662c-0.068-0.232-0.002-0.39,0.195-0.505c0.232-0.134,0.468-0.265,0.702-0.393
		c1.648-0.9,3.301-1.791,4.942-2.704c1.291-0.716,2.536-1.509,3.719-2.396c0.726-0.544,1.412-1.135,2.06-1.771
		c3.037-2.979,4.17-6.635,3.848-10.806c-0.053-0.669-0.152-1.332-0.237-2.058c0.702-0.259,1.432-0.165,2.132-0.012
		c1.46,0.318,2.307,1.269,2.625,2.722c0.25,1.145,0.117,2.272-0.104,3.396c-0.194,0.989-0.512,1.941-0.903,2.873
		c-0.104,0.245-0.182,0.499-0.27,0.751c-0.082,0.046-0.153,0.114-0.078,0.199C135.923,214.57,136.013,214.515,136.086,214.463z
		 M126.308,222.16c-1.307,0.509-2.649,0.786-3.894,1.358c-0.272,0.125-0.53,0.284-0.781,0.447c-0.339,0.222-0.617,0.511-0.841,0.851
		c-0.492,0.742-0.473,0.916,0.145,1.544c0.353,0.359,0.723,0.695,1.147,0.968c0.6,0.381,1.248,0.635,1.958,0.719
		c0.391,0.045,0.489,0.005,0.586-0.363c0.196-0.751,0.555-1.429,0.905-2.113c0.274-0.535,0.533-1.077,0.681-1.665
		C126.353,223.357,126.453,222.803,126.308,222.16z"/>
	<path fill-rule="evenodd" clip-rule="evenodd" fill="#070707" d="M208.207,73.77c-0.452,0.021-0.789,0.26-1.136,0.444
		c-0.858,0.459-1.696,0.951-2.55,1.417c-0.736,0.402-1.49,0.761-2.304,0.993c-0.393,0.112-0.785,0.17-1.19,0.17
		c-1.185,0-2.207-0.708-2.653-1.817c-0.059-0.146-0.037-0.265,0.047-0.369c0.188-0.236,0.383-0.467,0.587-0.688
		c0.982-1.062,2.084-1.995,3.183-2.93c1.022-0.871,2.044-1.743,2.979-2.709c0.772-0.798,1.468-1.657,2.04-2.611
		c0.17-0.282,0.376-0.554,0.421-0.904c-0.367-0.47-0.89-0.697-1.422-0.906c-0.688-0.27-1.41-0.428-2.128-0.594
		c-0.719-0.166-1.438-0.336-2.115-0.636c-0.549-0.244-1.057-0.552-1.382-1.058c0.154-0.251,0.36-0.275,0.552-0.332
		c1.315-0.394,2.634-0.782,3.946-1.189c1.153-0.359,2.28-0.79,3.328-1.404c0.26-0.152,0.505-0.329,0.766-0.482
		c0.539-0.316,0.789-0.709,0.668-1.396c-0.144-0.827,0.037-1.671,0.173-2.499c0.134-0.827,0.297-1.651,0.413-2.48
		c0.151-1.075-0.006-2.075-0.81-2.891c-0.041-0.042-0.047-0.12-0.085-0.226c0.59-0.325,1.238-0.423,1.895-0.408
		c0.813,0.019,1.39,0.435,1.719,1.185c0.204,0.464,0.336,0.949,0.388,1.451c0.082,0.768,0.15,1.536,0.213,2.305
		c0.068,0.838,0.154,1.672,0.394,2.479c0.105,0.351,0.245,0.697,0.419,1.02c0.369,0.685,0.959,1.102,1.707,1.307
		c0.216,0.06,0.466-0.021,0.645,0.163c0.051,0.218-0.123,0.309-0.237,0.41c-0.604,0.535-1.218,1.055-1.823,1.586
		c-0.453,0.399-0.913,0.792-1.344,1.214c-1.046,1.025-1.633,2.277-1.801,3.729c-0.043,0.367-0.093,0.733-0.108,1.102
		c-0.015,0.289,0.133,0.521,0.382,0.66c0.271,0.151,0.534,0.069,0.741-0.126c0.267-0.252,0.505-0.534,0.751-0.809
		c0.224-0.249,0.432-0.514,0.664-0.754c0.087-0.091,0.219-0.157,0.342-0.19c0.141-0.038,0.259,0.048,0.329,0.174
		c0.05,0.092,0.052,0.19-0.03,0.273c-0.049,0.047-0.098,0.094-0.146,0.139c-1.058,0.95-1.671,2.17-2.08,3.502
		c-0.487,1.579-0.708,3.209-0.814,4.852c-0.152,2.344-0.26,4.69-0.405,7.035c-0.047,0.769-0.151,1.535-0.225,2.303
		c-0.022,0.241-0.151,0.362-0.387,0.366c-0.506,0.008-1-0.034-1.49-0.186c-1.051-0.324-1.618-1.039-1.738-2.108
		c-0.097-0.871-0.034-1.742,0.107-2.607c0.209-1.291,0.414-2.582,0.607-3.875C208.26,74.509,208.329,74.146,208.207,73.77z"/>
	<path fill-rule="evenodd" clip-rule="evenodd" fill="#070707" d="M226.041,170.783c0.222-0.553,0.577-0.95,0.955-1.323
		c0.501-0.493,1.032-0.959,1.545-1.443c0.438-0.417,0.859-0.851,1.16-1.382c0.097-0.169,0.03-0.342-0.151-0.386
		c-1.72-0.421-3.264-0.065-4.601,1.095c-1.16,1.006-1.792,2.32-2.138,3.792c-0.231,0.992-0.241,1.996-0.191,3.004
		c0.007,0.119,0.063,0.269-0.104,0.346c-0.148,0.067-0.262-0.023-0.371-0.087c-1.203-0.686-1.828-1.741-1.948-3.104
		c-0.094-1.081,0.055-2.143,0.293-3.194c0.341-1.507,0.813-2.975,1.234-4.458c0.431-1.517,0.862-3.036,0.951-4.621
		c0.024-0.436,0.014-0.872,0.025-1.308c0.007-0.22,0.184-0.345,0.412-0.328c0.29,0.024,0.518,0.147,0.656,0.401
		c0.08,0.146,0.15,0.303,0.192,0.464c0.267,1.014,0.41,0.863,1.147,0.507c0.908-0.438,1.776-0.943,2.613-1.507
		c0.167-0.112,0.343-0.215,0.425-0.42c-0.298-0.574-0.831-0.868-1.408-1.058c-0.571-0.188-1.169-0.3-1.755-0.44
		c-0.586-0.143-1.174-0.275-1.76-0.419c-0.129-0.031-0.262-0.072-0.312-0.252c0.038-0.185,0.238-0.162,0.37-0.214
		c1.729-0.674,3.517-1.106,5.369-1.25c0.981-0.076,1.944,0.021,2.882,0.32c0.551,0.176,1.039,0.466,1.45,0.878
		c0.208,0.208,0.238,0.37,0.066,0.626c-0.242,0.362-0.517,0.703-0.769,1.058c-0.272,0.383-0.569,0.753-0.795,1.16
		c-0.462,0.829-0.297,1.304,0.545,1.69c0.181,0.083,0.397,0.088,0.537,0.301c-0.12,0.354-0.413,0.578-0.706,0.785
		c-1.403,0.99-2.951,1.571-4.684,1.613c-0.166,0.006-0.335-0.004-0.502-0.018c-0.745-0.061-1.362-0.312-1.694-1.055
		c-0.123-0.272-0.339-0.285-0.567-0.11c-0.339,0.261-0.519,0.612-0.589,1.021c-0.045,0.264-0.083,0.535-0.077,0.8
		c0.034,1.298,0.084,2.593,0.127,3.88c0.34,0.104,0.558-0.102,0.793-0.203c1.106-0.479,2.196-1.003,3.306-1.472
		c1.332-0.562,2.702-1.013,4.142-1.211c1.394-0.19,2.746-0.061,4.017,0.597c0.396,0.205,0.429,0.294,0.275,0.711
		c-0.303,0.824-0.729,1.584-1.264,2.279c-0.53,0.692-1.098,1.355-1.636,2.044c-0.413,0.525-0.805,1.072-1.211,1.606
		c-0.192,0.254-0.143,0.496,0.009,0.745c0.222,0.365,0.573,0.557,0.948,0.712c0.403,0.168,0.815,0.307,1.219,0.472
		c0.494,0.205,0.824,0.559,0.96,1.089c0.11,0.436,0,0.628-0.427,0.737c-0.938,0.238-1.864,0.156-2.782-0.104
		c-0.584-0.165-1.14-0.398-1.682-0.667C228.979,172.704,227.571,171.671,226.041,170.783z"/>
	<path fill-rule="evenodd" clip-rule="evenodd" fill="#070707" d="M224.346,120.363c-0.444,0.372-0.552,0.875-0.688,1.354
		c-0.111,0.385-0.154,0.789-0.253,1.18c-0.108,0.421-0.233,0.838-0.373,1.25c-0.129,0.377-0.366,0.579-0.814,0.589
		c-0.948,0.023-1.846,0.316-2.72,0.668c-0.779,0.312-1.55,0.654-2.375,0.819c-1.193,0.239-1.196,0.27-1.729-0.914
		c-0.189-0.423-0.316-0.891-0.381-1.352c-0.166-1.195-0.222-2.397-0.052-3.668c0.429-0.062,0.854-0.146,1.28-0.179
		c1.14-0.084,2.277-0.17,3.417-0.211c2.147-0.079,4.293-0.19,6.428-0.439c1.428-0.167,2.852-0.379,4.209-0.84
		c0.057-0.378-0.179-0.599-0.347-0.839c-0.762-1.094-1.825-1.648-3.144-1.734c-0.946-0.061-1.871,0.094-2.787,0.318
		c-1.307,0.319-2.567,0.771-3.836,1.205c-1.43,0.487-2.859,0.976-4.356,1.207c-1.21,0.187-2.41,0.192-3.557-0.326
		c-0.172-0.077-0.377-0.124-0.466-0.362c0.12-0.052,0.237-0.123,0.362-0.151c3.234-0.742,6.466-1.504,9.708-2.209
		c2.527-0.55,5.084-0.932,7.677-0.986c1.92-0.04,3.821,0.103,5.668,0.69c0.899,0.286,1.751,0.673,2.545,1.186
		c0.142,0.092,0.285,0.178,0.309,0.371c-0.399,0.225-0.824,0.217-1.268,0.151c-0.735-0.108-1.436-0.338-2.136-0.566
		c-0.766-0.25-1.531-0.498-2.326-0.639c-0.359-0.063-0.731-0.074-1.099-0.083c-0.21-0.006-0.353,0.205-0.324,0.421
		c0.053,0.381,0.243,0.691,0.501,0.967c0.299,0.323,0.653,0.58,1.031,0.797c1.001,0.572,2.067,0.955,3.221,1.065
		c0.202,0.021,0.403,0.032,0.604,0.059c0.206,0.028,0.272,0.167,0.242,0.357c-0.065,0.443-0.348,0.727-0.741,0.878
		c-0.311,0.118-0.644,0.186-0.971,0.249c-0.23,0.044-0.468,0.039-0.703,0.062c-0.979,0.098-0.852,0.159-0.848,0.976
		c0.007,1.241,0.017,2.484,0,3.726c-0.014,1.009-0.136,2.008-0.37,2.991c-0.165,0.69-0.427,1.341-0.857,1.914
		c-0.4,0.533-0.554,0.57-1.199,0.314c-0.411-0.162-0.774-0.398-1.091-0.706c-0.265-0.257-0.522-0.521-0.768-0.797
		c-0.608-0.685-1.254-1.31-2.159-1.593c-0.185-0.057-0.179-0.259-0.025-0.383c0.19-0.155,0.404-0.238,0.645-0.244
		c0.368-0.009,0.738-0.008,1.106-0.011c0.337-0.002,0.674,0.023,1.007-0.013c0.709-0.077,0.901-0.305,0.904-1.048
		c0.007-1.511,0.005-3.021-0.001-4.532c-0.002-0.398-0.064-0.459-0.469-0.472c-0.37-0.012-0.739-0.006-1.107,0.001
		c-0.504,0.009-1.008,0.026-1.51,0.042C226.315,120.908,225.283,120.867,224.346,120.363z M219.938,121.792
		c-0.001-0.288-0.123-0.46-0.395-0.484c-0.298-0.028-0.604-0.055-0.9-0.02c-1.299,0.153-1.895,1.442-1.192,2.545
		c0.143,0.223,0.326,0.318,0.589,0.276C219.424,123.893,219.874,123.024,219.938,121.792z"/>
	<path fill-rule="evenodd" clip-rule="evenodd" fill="#070707" d="M227.625,63.785c0.077,0.924-0.192,1.781-0.517,2.627
		c-0.382,0.984-0.983,1.83-1.69,2.601c-0.658,0.717-1.348,1.406-2.015,2.114c-0.6,0.636-1.15,1.311-1.576,2.08
		c-0.153,0.276-0.051,0.449,0.267,0.44c1.348-0.037,2.674-0.234,3.973-0.584c1.133-0.305,2.259-0.635,3.385-0.959
		c0.387-0.11,0.503-0.254,0.525-0.629c0.029-0.492-0.106-0.933-0.472-1.276c-0.243-0.23-0.519-0.428-0.758-0.661
		c-0.376-0.364-0.633-0.778-0.435-1.356c1.693,0.591,3.373,1.161,5.04,1.768c0.726,0.263,1.411,0.621,2.05,1.062
		c1.451,1.004,2.207,2.395,2.318,4.145c0.02,0.335,0.018,0.672,0.008,1.007c-0.024,0.855-0.032,0.858-0.843,0.816
		c-1.08-0.057-2.026-0.444-2.817-1.176c-0.393-0.363-0.749-0.77-1.081-1.188c-0.222-0.277-0.438-0.372-0.777-0.259
		c-0.73,0.246-1.468,0.472-2.203,0.7c-2.211,0.688-4.438,1.309-6.74,1.607c-1.872,0.243-3.744,0.281-5.61-0.095
		c-0.289-0.058-0.519-0.127-0.507-0.486c0.011-0.37-0.305-0.568-0.495-0.86c1.349-2.004,2.589-4.078,4.044-6.01
		c0.809-1.074,1.693-2.081,2.701-2.977c1.062-0.943,2.234-1.712,3.538-2.277C227.145,63.868,227.346,63.731,227.625,63.785z"/>
	<path fill-rule="evenodd" clip-rule="evenodd" fill="#070707" d="M208.671,117.767c0.319,0.887,0.412,1.745,0.39,2.613
		c-0.083,3.099-0.531,6.141-1.42,9.112c-0.096,0.32-0.232,0.629-0.328,0.95c-0.081,0.273-0.254,0.362-0.522,0.354
		c-0.814-0.024-1.598-0.188-2.337-0.529c-1.062-0.489-1.763-1.318-2.158-2.404c-0.253-0.695-0.406-1.417-0.437-2.16
		c-0.06-1.41-0.02-2.814,0.108-4.221c0.154-1.702,0.351-3.402,0.312-5.118c-0.018-0.673-0.07-1.339-0.215-1.997
		c-0.224-1.008-0.644-1.9-1.476-2.559c-0.078-0.062-0.148-0.133-0.218-0.205c-0.02-0.019-0.02-0.058-0.043-0.15
		c0.636,0.057,1.253,0.104,1.87,0.171c1.135,0.121,2.262,0.285,3.356,0.62c0.706,0.217,1.396,0.479,1.922,1.043
		c0.176,0.189,0.237,0.367,0.089,0.624c-0.405,0.702-0.892,1.34-1.421,1.947c-0.595,0.684-1.204,1.353-1.798,2.036
		c-0.551,0.634-1.052,1.305-1.45,2.047c-1.018,1.891-0.821,3.739,0.194,5.558c0.128,0.229,0.269,0.264,0.495,0.137
		c0.594-0.328,1.099-0.766,1.551-1.267c0.633-0.703,1.141-1.492,1.55-2.341c0.493-1.025,0.954-2.067,1.433-3.101
		C208.297,118.538,208.487,118.153,208.671,117.767z"/>
	<path fill-rule="evenodd" clip-rule="evenodd" fill="#070707" d="M221.624,94.319c0.198,0.069,0.295,0.089,0.379,0.136
		c1.231,0.679,2.57,0.95,3.952,1.047c1.104,0.076,2.21,0.137,3.315,0.196c0.873,0.047,1.732,0.188,2.573,0.427
		c0.779,0.222,1.505,0.564,2.133,1.09c0.045,0.038,0.094,0.106,0.091,0.158c-0.008,0.114-0.102,0.154-0.207,0.155
		c-0.704,0.007-1.409,0.006-2.113,0.02c-1.208,0.023-2.413,0.079-3.593,0.371c-0.692,0.171-1.334,0.446-1.851,0.96
		c-0.217,0.216-0.184,0.392,0.086,0.539c0.486,0.269,1.009,0.331,1.554,0.333c0.812,0.004,1.595-0.197,2.39-0.31
		c0.402-0.057,0.801-0.115,1.202-0.074c0.647,0.066,1.23,0.267,1.604,0.856c-0.205,0.207-0.438,0.255-0.661,0.324
		c-2.019,0.637-4.088,1.052-6.175,1.369c-3.15,0.478-6.32,0.792-9.492,1.07c-0.166,0.015-0.334,0.031-0.5,0.027
		c-0.051,0-0.121-0.058-0.142-0.106c-0.021-0.051-0.012-0.133,0.017-0.183c0.205-0.365,0.525-0.604,0.896-0.778
		c0.427-0.199,0.877-0.32,1.335-0.431c0.649-0.158,1.312-0.275,1.926-0.559c0.619-0.283,1.034-0.728,1.188-1.4
		c0.061-0.265-0.012-0.444-0.247-0.592c-0.293-0.185-0.611-0.269-0.955-0.272c-0.503-0.006-1.002,0.036-1.499,0.129
		c-0.526,0.098-1.06,0.191-1.593,0.214c-0.903,0.037-1.447-0.357-1.678-1.136c-0.067-0.23,0.038-0.385,0.29-0.387
		c0.805-0.006,1.609-0.001,2.414,0.001c0.572,0.002,1.139-0.042,1.697-0.181c1.238-0.307,1.757-0.963,1.726-2.217
		C221.682,94.883,221.65,94.65,221.624,94.319z"/>
	<path fill-rule="evenodd" clip-rule="evenodd" fill="#070707" d="M208.292,108.092c1.442-0.385,2.638-0.7,3.83-1.025
		c2.778-0.758,5.54-1.569,8.352-2.193c2.886-0.64,5.788-1.136,8.756-1.092c1.618,0.024,3.206,0.238,4.742,0.772
		c1.776,0.617,3.11,1.546,4.138,2.884c-0.029,0.242-0.238,0.284-0.414,0.36c-0.81,0.349-1.672,0.473-2.534,0.596
		c-0.695,0.1-1.394,0.191-2.084,0.324c-0.426,0.081-0.838,0.229-1.257,0.348c-0.126,0.035-0.258,0.104-0.383,0.093
		c-0.268-0.021-0.556-0.079-0.682-0.346c-0.123-0.258,0.091-0.446,0.255-0.6c0.344-0.318,0.71-0.613,1.066-0.917
		c0.333-0.281,0.672-0.559,0.925-0.919c0.245-0.351,0.184-0.542-0.202-0.66c-1.555-0.477-3.145-0.647-4.763-0.619
		c-2.299,0.04-4.516,0.547-6.709,1.184c-1.799,0.522-3.589,1.083-5.394,1.588c-1.617,0.454-3.261,0.779-4.953,0.707
		c-0.501-0.021-1.001-0.098-1.495-0.179C209.158,108.343,208.842,108.234,208.292,108.092z"/>
	<path fill-rule="evenodd" clip-rule="evenodd" fill="#070707" d="M231.917,111.948c-0.188,0.067-0.339,0.14-0.497,0.178
		c-2.604,0.627-5.186,1.353-7.827,1.821c-2.986,0.529-5.984,0.704-8.989,0.251c-0.066-0.227,0.067-0.319,0.217-0.409
		c0.556-0.338,1.172-0.483,1.805-0.574c0.896-0.128,1.792-0.254,2.686-0.392c0.467-0.072,0.912-0.231,1.31-0.488
		c0.755-0.488,1.008-1.219,0.944-2.081c-0.018-0.257-0.174-0.42-0.417-0.511c-0.328-0.123-0.659-0.091-0.993-0.04
		c-0.465,0.072-0.932,0.127-1.402,0.072c-0.407-0.048-0.579-0.259-0.592-0.672c-0.01-0.343,0.106-0.486,0.477-0.469
		c1.469,0.071,2.852-0.306,4.22-0.783c0.917-0.32,1.838-0.633,2.801-0.784c0.949-0.149,1.87-0.046,2.767,0.297
		c0.259,0.1,0.299,0.252,0.123,0.436c-0.331,0.347-0.751,0.555-1.173,0.762c-0.421,0.205-0.851,0.394-1.265,0.614
		c-0.697,0.371-1.108,0.947-1.19,1.748c-0.034,0.354,0.058,0.47,0.449,0.471c0.805,0.004,1.609-0.018,2.414-0.014
		c1.072,0.007,2.146-0.017,3.205,0.217C231.302,111.667,231.614,111.722,231.917,111.948z"/>
	<path fill-rule="evenodd" clip-rule="evenodd" fill="#070707" d="M221.91,55.823c1.077,0.064,2.198,0.509,3.084,1.474
		c0.391,0.425,0.531,0.866,0.281,1.459c-0.628,1.497-1.577,2.708-2.945,3.587c-0.453,0.292-0.946,0.493-1.474,0.618
		c-1.094,0.259-2.048-0.036-2.909-0.716c-0.202-0.16-0.28-0.358-0.253-0.615c0.045-0.411,0.18-0.788,0.449-1.1
		c0.284-0.327,0.592-0.636,0.9-0.941c0.26-0.259,0.553-0.489,0.802-0.758c0.68-0.728,0.73-1.154,0.279-2.076
		c-0.156-0.317-0.136-0.399,0.135-0.556C220.709,55.942,221.144,55.829,221.91,55.823z"/>
	<path fill-rule="evenodd" clip-rule="evenodd" fill="#070707" d="M205.021,95.355c0.437-0.277,0.88-0.258,1.305-0.211
		c1.623,0.176,3.03,0.819,4.151,2.026c0.557,0.602,0.947,1.298,1.065,2.123c0.051,0.362-0.019,0.492-0.381,0.58
		c-0.846,0.206-1.692,0.408-2.547,0.581c-1.676,0.337-3.342,0.705-4.945,1.309c-0.023,0.01-0.062-0.011-0.109-0.022
		c-0.153-0.175,0.034-0.293,0.111-0.401c0.33-0.465,0.687-0.909,1.017-1.374c0.232-0.327,0.457-0.663,0.65-1.014
		c0.527-0.95,0.528-1.918,0.048-2.888C205.271,95.832,205.149,95.604,205.021,95.355z"/>
	<path fill-rule="evenodd" clip-rule="evenodd" fill="#070707" d="M228.526,62.789c0.777-0.529,1.479-1.147,2.139-1.814
		c0.499-0.502,0.866-1.094,1.22-1.708c0.508-0.887-0.044-2.3-1.085-2.636c-0.249-0.08-0.533-0.074-0.77-0.307
		c0.635-0.771,1.41-1.063,2.385-0.804c0.694,0.187,1.286,0.557,1.847,0.985c0.964,0.734,1.783,1.62,2.619,2.488
		c0.186,0.192,0.169,0.294-0.055,0.493c-0.629,0.562-1.333,1.015-2.094,1.368c-0.637,0.295-1.282,0.573-1.945,0.804
		c-1.168,0.404-2.35,0.771-3.529,1.144c-0.246,0.078-0.508,0.202-0.755-0.015L228.526,62.789z"/>
	<path fill-rule="evenodd" clip-rule="evenodd" fill="#070707" d="M224.959,122.511c0.926,0.01,1.73,0.183,2.471,0.593
		c0.749,0.415,1.178,1.07,1.312,1.913c0.024,0.146-0.035,0.262-0.198,0.287c-0.533,0.084-1.072,0.099-1.596-0.031
		c-0.645-0.16-1.143-0.552-1.469-1.133C225.217,123.674,225.007,123.182,224.959,122.511z"/>
	<path fill-rule="evenodd" clip-rule="evenodd" fill="#070707" d="M228.503,62.788c0.095,0.017,0.162,0.055,0.125,0.166
		c-0.004,0.012-0.039,0.015-0.06,0.022c-0.01-0.061-0.019-0.122-0.035-0.186C228.526,62.789,228.503,62.788,228.503,62.788z"/>
	<path fill-rule="evenodd" clip-rule="evenodd" fill="#FFFFFF" d="M193.3,240.867c-0.028,0.014-0.053,0.032-0.083,0.042
		c-0.09,0.027-0.2,0.036-0.236-0.055c-0.015-0.037,0.094-0.122,0.146-0.188C193.184,240.734,193.241,240.801,193.3,240.867z"/>
	<path fill-rule="evenodd" clip-rule="evenodd" fill="#FFFFFF" d="M75.924,233.196c-0.025,0.027-0.045,0.051-0.065,0.073
		c-0.021-0.041-0.051-0.081-0.062-0.125c-0.004-0.015,0.039-0.042,0.061-0.063C75.881,233.122,75.904,233.163,75.924,233.196z"/>
	<path fill-rule="evenodd" clip-rule="evenodd" fill="#FFFFFF" d="M136.086,214.463c-0.073,0.052-0.163,0.107-0.233,0.028
		c-0.075-0.085-0.004-0.153,0.078-0.199C135.982,214.349,136.035,214.405,136.086,214.463z"/>
</g>
</svg>
